<?xml version="1.0" encoding="UTF-8"?>
<svg id="Capa_2" data-name="Capa 2" xmlns="http://www.w3.org/2000/svg" viewBox="0 0 136.12 119.63">
  <defs>
    <style>
      .cls-1 {
        fill: #fff;
      }

      .cls-1, .cls-2 {
        stroke-width: 0px;
      }

      .cls-2 {
        fill: #d12e36;
      }
    </style>
  </defs>
  <g id="Capa_1-2" data-name="Capa 1">
    <path class="cls-2" d="m136.12,21.01c-.98,3.25-1.99,6.48-2.92,9.74-4.33,15.09-8.64,30.19-12.96,45.28-.81,2.82-2.03,3.73-4.99,3.73-23.35,0-46.7,0-70.05,0-3.19,0-5.04,1.47-5.04,3.99s1.85,3.99,5.04,3.99h69.91c3.19,0,5.04,1.47,5.04,3.99s-1.84,3.99-5.04,3.99c-1.68,0-3.36,0-5.43,0,8.09,1.79,11.2,8.37,10.29,14.02-.89,5.47-6.09,9.94-11.81,9.9-6.2-.05-11.19-4.62-11.82-11.05-.52-5.3,2.81-11.24,10.26-12.8h-52.58c3.25.73,5.96,2.32,7.87,5.08,1.9,2.74,2.49,5.8,1.94,9.1-.91,5.47-6.38,9.9-12,9.67-6.37-.26-11.16-4.95-11.65-11.4-.44-5.78,3.84-11.06,10.02-12.51-1.95,0-3.91.03-5.86,0-5.56-.1-10.03-3.38-11.6-8.46-1.68-5.44.67-11.21,5.68-13.95.3-.17.6-.35.95-.56-4.8-21.58-9.58-43.12-14.39-64.75-2.58,0-5.09,0-7.61,0-4.39,0-8.77.03-13.16-.01-3.04-.03-5-2.78-3.9-5.45C.96.95,2.2.04,3.91.03,11.97,0,20.04-.02,28.1.03c2.17.01,3.55,1.28,4.06,3.5.93,4.09,1.83,8.2,2.77,12.42h1.72c31.37,0,62.74.02,94.1-.04,2.47,0,4.29.66,5.36,2.96v2.13Z"/>
    <path class="cls-1" d="m84.1,34.42c.06-3.51-2.99-5.82-6.09-4.86-2.21.68-3.51,2.8-3.25,5.28.11,1.07.19,2.14.28,3.22.21,2.48.41,4.95.62,7.43.21,2.55.43,5.1.64,7.65.12,1.37.21,2.74.38,4.1.17,1.35,1.37,2.34,2.74,2.34,1.37,0,2.56-.98,2.74-2.34.15-1.2.23-2.41.33-3.62.22-2.55.43-5.1.64-7.65.19-2.22.38-4.44.56-6.65.14-1.71.28-3.42.41-4.89"/>
    <path class="cls-1" d="m79.05,69.34c-.8-.18-1.5-.52-2.03-1.18-.99-1.24-.8-3.13.43-4.17,1.26-1.07,3.15-.95,4.21.25.8.92,1.02,1.97.6,3.11-.4,1.08-1.2,1.72-2.33,1.94-.05,0-.09.04-.13.05h-.74Z"/>
    <path class="cls-1" d="m84.1,34.42c-.12,1.46-.26,3.17-.41,4.89-.19,2.22-.37,4.44-.56,6.65-.22,2.55-.43,5.1-.64,7.65-.1,1.21-.18,2.42-.33,3.62-.17,1.36-1.36,2.34-2.74,2.34-1.37,0-2.57-.98-2.74-2.34-.17-1.36-.26-2.73-.38-4.1-.22-2.55-.43-5.1-.64-7.65-.21-2.48-.41-4.95-.62-7.43-.09-1.07-.16-2.15-.28-3.22-.26-2.48,1.03-4.6,3.25-5.28,3.1-.95,6.15,1.35,6.09,4.86"/>
  </g>
</svg>